<svg width="612" height="29" viewBox="0 0 612 29" fill="none" xmlns="http://www.w3.org/2000/svg">
<path d="M14.4531 28.4C12.4798 28.4 10.6398 28.04 8.93313 27.32C7.25313 26.6 5.78646 25.5867 4.53313 24.28C3.27979 22.9733 2.30646 21.4667 1.61313 19.76C0.946458 18.0267 0.613125 16.1733 0.613125 14.2C0.613125 12.2267 0.946458 10.3867 1.61313 8.68C2.30646 6.94667 3.26646 5.44 4.49313 4.16C5.74646 2.88 7.21313 1.88 8.89313 1.16C10.5731 0.44 12.3865 0.0799994 14.3331 0.0799994C16.4398 0.0799994 18.3198 0.453333 19.9731 1.2C21.6531 1.94667 23.1198 2.97333 24.3731 4.28L22.3731 6.28C21.4131 5.21333 20.2531 4.38667 18.8931 3.8C17.5331 3.18667 16.0131 2.88 14.3331 2.88C12.7865 2.88 11.3598 3.16 10.0531 3.72C8.77313 4.28 7.63979 5.08 6.65313 6.12C5.69313 7.13333 4.94646 8.33333 4.41313 9.72C3.90646 11.08 3.65313 12.5733 3.65313 14.2C3.65313 15.8267 3.91979 17.3333 4.45313 18.72C4.98646 20.1067 5.73313 21.32 6.69313 22.36C7.65313 23.3733 8.78646 24.16 10.0931 24.72C11.3998 25.28 12.8265 25.56 14.3731 25.56C16.1331 25.56 17.6931 25.2533 19.0531 24.64C20.4398 24.0267 21.6131 23.1867 22.5731 22.12L24.5731 24.16C23.3465 25.4667 21.8798 26.5067 20.1731 27.28C18.4665 28.0267 16.5598 28.4 14.4531 28.4ZM60.9747 28.4C59.028 28.4 57.2147 28.04 55.5347 27.32C53.8814 26.5733 52.428 25.56 51.1747 24.28C49.9214 22.9733 48.9347 21.4667 48.2147 19.76C47.5214 18.0267 47.1747 16.1733 47.1747 14.2C47.1747 12.2 47.5214 10.3467 48.2147 8.64C48.908 6.93333 49.8814 5.44 51.1347 4.16C52.388 2.88 53.8414 1.88 55.4947 1.16C57.148 0.44 58.948 0.0799994 60.8947 0.0799994C62.8414 0.0799994 64.6414 0.44 66.2947 1.16C67.9747 1.88 69.4414 2.88 70.6947 4.16C71.948 5.44 72.9214 6.94667 73.6147 8.68C74.308 10.3867 74.6547 12.24 74.6547 14.24C74.6547 16.2133 74.308 18.0667 73.6147 19.8C72.9214 21.5067 71.948 23 70.6947 24.28C69.468 25.56 68.028 26.5733 66.3747 27.32C64.7214 28.04 62.9214 28.4 60.9747 28.4ZM60.8947 25.56C62.9747 25.56 64.8147 25.0667 66.4147 24.08C68.0414 23.0933 69.308 21.7467 70.2147 20.04C71.148 18.3333 71.6147 16.3867 71.6147 14.2C71.6147 12.5733 71.348 11.08 70.8147 9.72C70.2814 8.33333 69.5347 7.13333 68.5747 6.12C67.6147 5.08 66.4814 4.28 65.1747 3.72C63.8947 3.16 62.468 2.88 60.8947 2.88C58.8414 2.88 57.0014 3.37333 55.3747 4.36C53.7747 5.32 52.508 6.65333 51.5747 8.36C50.668 10.0667 50.2147 12.0133 50.2147 14.2C50.2147 15.8267 50.4814 17.3333 51.0147 18.72C51.548 20.1067 52.2947 21.32 53.2547 22.36C54.2147 23.3733 55.348 24.16 56.6547 24.72C57.9614 25.28 59.3747 25.56 60.8947 25.56ZM100.333 28V0.479999H102.413L103.253 3.96V28H100.333ZM119.373 28L101.973 4.4L102.413 0.479999L119.773 24.08L119.373 28ZM119.373 28L118.493 24.68V0.479999H121.453V28H119.373ZM160.898 28.36C158.951 28.36 157.138 28 155.458 27.28C153.778 26.56 152.311 25.56 151.058 24.28C149.804 23 148.831 21.5067 148.138 19.8C147.444 18.0667 147.098 16.2 147.098 14.2C147.098 12.2 147.444 10.3467 148.138 8.64C148.858 6.93333 149.844 5.44 151.098 4.16C152.351 2.85333 153.831 1.84 155.538 1.12C157.244 0.399998 159.098 0.0399976 161.098 0.0399976C163.311 0.0399976 165.338 0.479998 167.178 1.36C169.044 2.24 170.578 3.48 171.778 5.08L169.738 7.12C168.778 5.76 167.551 4.72 166.057 4C164.564 3.25333 162.911 2.88 161.098 2.88C158.938 2.88 157.031 3.37333 155.378 4.36C153.724 5.32 152.431 6.65333 151.498 8.36C150.591 10.0667 150.138 12.0267 150.138 14.24C150.138 16.4267 150.591 18.3733 151.498 20.08C152.431 21.7867 153.698 23.1333 155.298 24.12C156.924 25.08 158.764 25.56 160.818 25.56C162.871 25.56 164.644 25.1467 166.138 24.32C167.658 23.4933 168.818 22.2933 169.618 20.72C170.444 19.1467 170.871 17.2533 170.898 15.04L172.578 16.28H160.538V13.6H173.938V14.04C173.938 17.1333 173.378 19.7467 172.258 21.88C171.164 24.0133 169.644 25.6267 167.698 26.72C165.751 27.8133 163.484 28.36 160.898 28.36ZM201.275 15.68V13.2H209.275C211.088 13.2 212.475 12.7467 213.435 11.84C214.395 10.9067 214.875 9.66667 214.875 8.12C214.875 6.62667 214.395 5.41333 213.435 4.48C212.475 3.52 211.088 3.04 209.275 3.04H201.275V0.479999H209.275C211.062 0.479999 212.595 0.813332 213.875 1.48C215.155 2.12 216.128 3.01333 216.795 4.16C217.488 5.30667 217.835 6.61333 217.835 8.08C217.835 9.6 217.488 10.9333 216.795 12.08C216.128 13.2267 215.155 14.12 213.875 14.76C212.595 15.3733 211.062 15.68 209.275 15.68H201.275ZM199.395 28V0.479999H202.315V28H199.395ZM216.035 28L205.715 15.28L208.555 14.36L219.795 28H216.035ZM241.222 28L252.502 0.479999H254.702L265.862 28H262.702L252.982 3.68H254.142L244.342 28H241.222ZM246.382 20.84V18.24H260.782V20.84H246.382ZM294.262 28V1.24H297.222V28H294.262ZM284.582 3.16V0.479999H306.902V3.16H284.582ZM341.544 28.4C339.544 28.4 337.758 27.96 336.184 27.08C334.638 26.1733 333.411 24.9467 332.504 23.4C331.598 21.8267 331.144 20.0667 331.144 18.12V0.479999H334.104V17.96C334.104 19.5067 334.424 20.8533 335.064 22C335.704 23.1467 336.584 24.0267 337.704 24.64C338.851 25.2533 340.131 25.56 341.544 25.56C342.958 25.56 344.211 25.2533 345.304 24.64C346.424 24.0267 347.304 23.16 347.944 22.04C348.611 20.8933 348.944 19.5467 348.944 18V0.479999H351.864V18.16C351.864 20.1067 351.411 21.8533 350.504 23.4C349.624 24.9467 348.398 26.1733 346.824 27.08C345.278 27.96 343.518 28.4 341.544 28.4ZM378.536 28V0.479999H381.456V28H378.536ZM380.456 28V25.32H395.616V28H380.456ZM417.55 28L428.83 0.479999H431.03L442.19 28H439.03L429.31 3.68H430.47L420.67 28H417.55ZM422.71 20.84V18.24H437.11V20.84H422.71ZM470.59 28V1.24H473.55V28H470.59ZM460.91 3.16V0.479999H483.23V3.16H460.91ZM508.223 28V0.479999H511.143V28H508.223ZM550.584 28.4C548.637 28.4 546.824 28.04 545.144 27.32C543.491 26.5733 542.037 25.56 540.784 24.28C539.531 22.9733 538.544 21.4667 537.824 19.76C537.131 18.0267 536.784 16.1733 536.784 14.2C536.784 12.2 537.131 10.3467 537.824 8.64C538.517 6.93333 539.491 5.44 540.744 4.16C541.997 2.88 543.451 1.88 545.104 1.16C546.757 0.44 548.557 0.0799994 550.504 0.0799994C552.451 0.0799994 554.251 0.44 555.904 1.16C557.584 1.88 559.051 2.88 560.304 4.16C561.557 5.44 562.531 6.94667 563.224 8.68C563.917 10.3867 564.264 12.24 564.264 14.24C564.264 16.2133 563.917 18.0667 563.224 19.8C562.531 21.5067 561.557 23 560.304 24.28C559.077 25.56 557.637 26.5733 555.984 27.32C554.331 28.04 552.531 28.4 550.584 28.4ZM550.504 25.56C552.584 25.56 554.424 25.0667 556.024 24.08C557.651 23.0933 558.917 21.7467 559.824 20.04C560.757 18.3333 561.224 16.3867 561.224 14.2C561.224 12.5733 560.957 11.08 560.424 9.72C559.891 8.33333 559.144 7.13333 558.184 6.12C557.224 5.08 556.091 4.28 554.784 3.72C553.504 3.16 552.077 2.88 550.504 2.88C548.451 2.88 546.611 3.37333 544.984 4.36C543.384 5.32 542.117 6.65333 541.184 8.36C540.277 10.0667 539.824 12.0133 539.824 14.2C539.824 15.8267 540.091 17.3333 540.624 18.72C541.157 20.1067 541.904 21.32 542.864 22.36C543.824 23.3733 544.957 24.16 546.264 24.72C547.571 25.28 548.984 25.56 550.504 25.56ZM589.942 28V0.479999H592.022L592.862 3.96V28H589.942ZM608.982 28L591.582 4.4L592.022 0.479999L609.382 24.08L608.982 28ZM608.982 28L608.102 24.68V0.479999H611.062V28H608.982Z" fill="#373052"/>
</svg>
