<svg width="437" height="79" viewBox="0 0 437 79" fill="none" xmlns="http://www.w3.org/2000/svg">
<path d="M151.257 28L136.217 13.64L150.937 0.479999H154.857L139.177 14.44V12.76L155.257 28H151.257ZM133.817 28V0.479999H136.737V28H133.817ZM179.481 28V0.479999H182.401V28H179.481ZM181.401 28V25.32H197.601V28H181.401ZM181.401 15.2V12.6H196.321V15.2H181.401ZM181.401 3.16V0.479999H197.361V3.16H181.401ZM223.036 28V0.479999H225.956V28H223.036ZM224.956 28V25.32H241.156V28H224.956ZM224.956 15.2V12.6H239.876V15.2H224.956ZM224.956 3.16V0.479999H240.916V3.16H224.956ZM268.47 16.96V14.36H276.59C277.71 14.36 278.71 14.1333 279.59 13.68C280.497 13.2267 281.204 12.5867 281.71 11.76C282.244 10.9067 282.51 9.89333 282.51 8.72C282.51 7.54667 282.244 6.54667 281.71 5.72C281.204 4.86666 280.497 4.21333 279.59 3.76C278.71 3.28 277.71 3.04 276.59 3.04H268.47V0.479999H276.79C278.444 0.479999 279.924 0.826665 281.23 1.52C282.537 2.18667 283.564 3.13333 284.31 4.36C285.084 5.58667 285.47 7.04 285.47 8.72C285.47 10.3733 285.084 11.8267 284.31 13.08C283.564 14.3067 282.537 15.2667 281.23 15.96C279.924 16.6267 278.444 16.96 276.79 16.96H268.47ZM266.59 28V0.479999H269.51V28H266.59ZM2.53281 66.96V64.36H10.6528C11.7728 64.36 12.7728 64.1333 13.6528 63.68C14.5595 63.2267 15.2661 62.5867 15.7728 61.76C16.3061 60.9067 16.5728 59.8933 16.5728 58.72C16.5728 57.5467 16.3061 56.5467 15.7728 55.72C15.2661 54.8667 14.5595 54.2133 13.6528 53.76C12.7728 53.28 11.7728 53.04 10.6528 53.04H2.53281V50.48H10.8528C12.5061 50.48 13.9861 50.8267 15.2928 51.52C16.5995 52.1867 17.6261 53.1333 18.3728 54.36C19.1461 55.5867 19.5328 57.04 19.5328 58.72C19.5328 60.3733 19.1461 61.8267 18.3728 63.08C17.6261 64.3067 16.5995 65.2667 15.2928 65.96C13.9861 66.6267 12.5061 66.96 10.8528 66.96H2.53281ZM0.652813 78V50.48H3.57281V78H0.652813ZM46.5172 65.68V63.2H54.5172C56.3305 63.2 57.7172 62.7467 58.6772 61.84C59.6372 60.9067 60.1172 59.6667 60.1172 58.12C60.1172 56.6267 59.6372 55.4133 58.6772 54.48C57.7172 53.52 56.3305 53.04 54.5172 53.04H46.5172V50.48H54.5172C56.3039 50.48 57.8372 50.8133 59.1172 51.48C60.3972 52.12 61.3705 53.0133 62.0372 54.16C62.7305 55.3067 63.0772 56.6133 63.0772 58.08C63.0772 59.6 62.7305 60.9333 62.0372 62.08C61.3705 63.2267 60.3972 64.12 59.1172 64.76C57.8372 65.3733 56.3039 65.68 54.5172 65.68H46.5172ZM44.6372 78V50.48H47.5572V78H44.6372ZM61.2772 78L50.9572 65.28L53.7972 64.36L65.0372 78H61.2772ZM86.4644 78L97.7444 50.48H99.9444L111.104 78H107.944L98.2244 53.68H99.3844L89.5844 78H86.4644ZM91.6244 70.84V68.24H106.024V70.84H91.6244ZM146.453 78.4C144.48 78.4 142.64 78.04 140.933 77.32C139.253 76.6 137.786 75.5867 136.533 74.28C135.28 72.9733 134.306 71.4667 133.613 69.76C132.946 68.0267 132.613 66.1733 132.613 64.2C132.613 62.2267 132.946 60.3867 133.613 58.68C134.306 56.9467 135.266 55.44 136.493 54.16C137.746 52.88 139.213 51.88 140.893 51.16C142.573 50.44 144.386 50.08 146.333 50.08C148.44 50.08 150.32 50.4533 151.973 51.2C153.653 51.9467 155.12 52.9733 156.373 54.28L154.373 56.28C153.413 55.2133 152.253 54.3867 150.893 53.8C149.533 53.1867 148.013 52.88 146.333 52.88C144.786 52.88 143.36 53.16 142.053 53.72C140.773 54.28 139.64 55.08 138.653 56.12C137.693 57.1333 136.946 58.3333 136.413 59.72C135.906 61.08 135.653 62.5733 135.653 64.2C135.653 65.8267 135.92 67.3333 136.453 68.72C136.986 70.1067 137.733 71.32 138.693 72.36C139.653 73.3733 140.786 74.16 142.093 74.72C143.4 75.28 144.826 75.56 146.373 75.56C148.133 75.56 149.693 75.2533 151.053 74.64C152.44 74.0267 153.613 73.1867 154.573 72.12L156.573 74.16C155.346 75.4667 153.88 76.5067 152.173 77.28C150.466 78.0267 148.56 78.4 146.453 78.4ZM188.605 78V51.24H191.565V78H188.605ZM178.925 53.16V50.48H201.245V53.16H178.925ZM226.239 78V50.48H229.159V78H226.239ZM268.68 78.4C266.706 78.4 264.866 78.04 263.16 77.32C261.48 76.6 260.013 75.5867 258.76 74.28C257.506 72.9733 256.533 71.4667 255.84 69.76C255.173 68.0267 254.84 66.1733 254.84 64.2C254.84 62.2267 255.173 60.3867 255.84 58.68C256.533 56.9467 257.493 55.44 258.72 54.16C259.973 52.88 261.44 51.88 263.12 51.16C264.8 50.44 266.613 50.08 268.56 50.08C270.666 50.08 272.546 50.4533 274.2 51.2C275.88 51.9467 277.346 52.9733 278.6 54.28L276.6 56.28C275.64 55.2133 274.48 54.3867 273.12 53.8C271.76 53.1867 270.24 52.88 268.56 52.88C267.013 52.88 265.586 53.16 264.28 53.72C263 54.28 261.866 55.08 260.88 56.12C259.92 57.1333 259.173 58.3333 258.64 59.72C258.133 61.08 257.88 62.5733 257.88 64.2C257.88 65.8267 258.146 67.3333 258.68 68.72C259.213 70.1067 259.96 71.32 260.92 72.36C261.88 73.3733 263.013 74.16 264.32 74.72C265.626 75.28 267.053 75.56 268.6 75.56C270.36 75.56 271.92 75.2533 273.28 74.64C274.666 74.0267 275.84 73.1867 276.8 72.12L278.8 74.16C277.573 75.4667 276.106 76.5067 274.4 77.28C272.693 78.0267 270.786 78.4 268.68 78.4ZM303.934 78V50.48H306.854V78H303.934ZM333.895 78V50.48H335.975L336.815 53.96V78H333.895ZM352.935 78L335.535 54.4L335.975 50.48L353.335 74.08L352.935 78ZM352.935 78L352.055 74.68V50.48H355.015V78H352.935ZM394.46 78.36C392.513 78.36 390.7 78 389.02 77.28C387.34 76.56 385.873 75.56 384.62 74.28C383.367 73 382.393 71.5067 381.7 69.8C381.007 68.0667 380.66 66.2 380.66 64.2C380.66 62.2 381.007 60.3467 381.7 58.64C382.42 56.9333 383.407 55.44 384.66 54.16C385.913 52.8533 387.393 51.84 389.1 51.12C390.807 50.4 392.66 50.04 394.66 50.04C396.873 50.04 398.9 50.48 400.74 51.36C402.607 52.24 404.14 53.48 405.34 55.08L403.3 57.12C402.34 55.76 401.113 54.72 399.62 54C398.127 53.2533 396.473 52.88 394.66 52.88C392.5 52.88 390.593 53.3733 388.94 54.36C387.287 55.32 385.993 56.6533 385.06 58.36C384.153 60.0667 383.7 62.0267 383.7 64.24C383.7 66.4267 384.153 68.3733 385.06 70.08C385.993 71.7867 387.26 73.1333 388.86 74.12C390.487 75.08 392.327 75.56 394.38 75.56C396.433 75.56 398.207 75.1467 399.7 74.32C401.22 73.4933 402.38 72.2933 403.18 70.72C404.007 69.1467 404.433 67.2533 404.46 65.04L406.14 66.28H394.1V63.6H407.5V64.04C407.5 67.1333 406.94 69.7467 405.82 71.88C404.727 74.0133 403.207 75.6267 401.26 76.72C399.313 77.8133 397.047 78.36 394.46 78.36ZM433.478 69.64L433.038 49.68H436.118L435.678 69.64H433.478ZM434.558 78.4C433.891 78.4 433.344 78.1733 432.918 77.72C432.491 77.2667 432.278 76.7333 432.278 76.12C432.278 75.4533 432.491 74.9067 432.918 74.48C433.344 74.0267 433.891 73.8 434.558 73.8C435.198 73.8 435.731 74.0267 436.158 74.48C436.584 74.9067 436.798 75.4533 436.798 76.12C436.798 76.7333 436.584 77.2667 436.158 77.72C435.731 78.1733 435.198 78.4 434.558 78.4Z" fill="#373052"/>
</svg>
